<mxfile host="app.diagrams.net" modified="2023-05-08T15:40:09.154Z" agent="Mozilla/5.0 (Macintosh; Intel Mac OS X 10_15_7) AppleWebKit/537.36 (KHTML, like Gecko) Chrome/113.0.0.0 Safari/537.36" etag="RwIkFw0v4fzP_qich5s3" version="21.2.9" type="device">
  <diagram name="Σελίδα-1" id="a5gaVYFKfgmfHz4B7sy7">
    <mxGraphModel dx="1306" dy="835" grid="1" gridSize="10" guides="1" tooltips="1" connect="1" arrows="1" fold="1" page="1" pageScale="1" pageWidth="827" pageHeight="1169" math="0" shadow="0">
      <root>
        <mxCell id="0" />
        <mxCell id="1" parent="0" />
        <mxCell id="BbysrrKKSGWngdhlLo0F-1" value="Αρχική οθόνη διευθυντή" style="shape=umlBoundary;whiteSpace=wrap;html=1;" vertex="1" parent="1">
          <mxGeometry x="260" y="150" width="100" height="80" as="geometry" />
        </mxCell>
        <mxCell id="BbysrrKKSGWngdhlLo0F-2" value="Διευθυντής" style="shape=umlActor;verticalLabelPosition=bottom;verticalAlign=top;html=1;" vertex="1" parent="1">
          <mxGeometry x="90" y="150" width="30" height="60" as="geometry" />
        </mxCell>
        <mxCell id="BbysrrKKSGWngdhlLo0F-3" value="Στοιχεία καθηγητών" style="shape=umlBoundary;whiteSpace=wrap;html=1;" vertex="1" parent="1">
          <mxGeometry x="460" y="150" width="100" height="80" as="geometry" />
        </mxCell>
        <mxCell id="BbysrrKKSGWngdhlLo0F-4" value="Φόρμα λόγου επικοινωνίας και προτεινόμενη μέρα και ώρα συνάντησης" style="shape=umlBoundary;whiteSpace=wrap;html=1;" vertex="1" parent="1">
          <mxGeometry x="770" y="140" width="120" height="100" as="geometry" />
        </mxCell>
        <mxCell id="BbysrrKKSGWngdhlLo0F-5" value="Πρόγραμμα" style="ellipse;shape=umlEntity;whiteSpace=wrap;html=1;" vertex="1" parent="1">
          <mxGeometry x="1010" y="150" width="80" height="80" as="geometry" />
        </mxCell>
        <mxCell id="BbysrrKKSGWngdhlLo0F-9" value="" style="html=1;points=[];perimeter=orthogonalPerimeter;outlineConnect=0;targetShapes=umlLifeline;portConstraint=eastwest;newEdgeStyle={&quot;edgeStyle&quot;:&quot;elbowEdgeStyle&quot;,&quot;elbow&quot;:&quot;vertical&quot;,&quot;curved&quot;:0,&quot;rounded&quot;:0};" vertex="1" parent="1">
          <mxGeometry x="90" y="260" width="10" height="550" as="geometry" />
        </mxCell>
        <mxCell id="BbysrrKKSGWngdhlLo0F-10" value="" style="endArrow=classic;html=1;rounded=0;" edge="1" parent="1" target="BbysrrKKSGWngdhlLo0F-14">
          <mxGeometry width="50" height="50" relative="1" as="geometry">
            <mxPoint x="100" y="300" as="sourcePoint" />
            <mxPoint x="310" y="300" as="targetPoint" />
          </mxGeometry>
        </mxCell>
        <mxCell id="BbysrrKKSGWngdhlLo0F-13" value="click &quot;Επικοινωνία&quot;" style="text;html=1;strokeColor=none;fillColor=none;align=center;verticalAlign=middle;whiteSpace=wrap;rounded=0;" vertex="1" parent="1">
          <mxGeometry x="150" y="260" width="90" height="30" as="geometry" />
        </mxCell>
        <mxCell id="BbysrrKKSGWngdhlLo0F-14" value="" style="html=1;points=[];perimeter=orthogonalPerimeter;outlineConnect=0;targetShapes=umlLifeline;portConstraint=eastwest;newEdgeStyle={&quot;edgeStyle&quot;:&quot;elbowEdgeStyle&quot;,&quot;elbow&quot;:&quot;vertical&quot;,&quot;curved&quot;:0,&quot;rounded&quot;:0};" vertex="1" parent="1">
          <mxGeometry x="305" y="280" width="10" height="110" as="geometry" />
        </mxCell>
        <mxCell id="BbysrrKKSGWngdhlLo0F-15" value="" style="endArrow=classic;html=1;rounded=0;" edge="1" parent="1" target="BbysrrKKSGWngdhlLo0F-16">
          <mxGeometry width="50" height="50" relative="1" as="geometry">
            <mxPoint x="315" y="380" as="sourcePoint" />
            <mxPoint x="510" y="380" as="targetPoint" />
          </mxGeometry>
        </mxCell>
        <mxCell id="BbysrrKKSGWngdhlLo0F-16" value="" style="html=1;points=[];perimeter=orthogonalPerimeter;outlineConnect=0;targetShapes=umlLifeline;portConstraint=eastwest;newEdgeStyle={&quot;edgeStyle&quot;:&quot;elbowEdgeStyle&quot;,&quot;elbow&quot;:&quot;vertical&quot;,&quot;curved&quot;:0,&quot;rounded&quot;:0};" vertex="1" parent="1">
          <mxGeometry x="505" y="340" width="10" height="320" as="geometry" />
        </mxCell>
        <mxCell id="BbysrrKKSGWngdhlLo0F-17" value="displayTeacherDetails()" style="text;html=1;strokeColor=none;fillColor=none;align=center;verticalAlign=middle;whiteSpace=wrap;rounded=0;" vertex="1" parent="1">
          <mxGeometry x="360" y="340" width="130" height="30" as="geometry" />
        </mxCell>
        <mxCell id="BbysrrKKSGWngdhlLo0F-18" value="" style="endArrow=classic;html=1;rounded=0;" edge="1" parent="1">
          <mxGeometry width="50" height="50" relative="1" as="geometry">
            <mxPoint x="110" y="460" as="sourcePoint" />
            <mxPoint x="500" y="460" as="targetPoint" />
          </mxGeometry>
        </mxCell>
        <mxCell id="BbysrrKKSGWngdhlLo0F-19" value="selectTeacher()" style="text;html=1;strokeColor=none;fillColor=none;align=center;verticalAlign=middle;whiteSpace=wrap;rounded=0;" vertex="1" parent="1">
          <mxGeometry x="210" y="420" width="80" height="30" as="geometry" />
        </mxCell>
        <mxCell id="BbysrrKKSGWngdhlLo0F-20" value="Teacher" style="ellipse;shape=umlEntity;whiteSpace=wrap;html=1;" vertex="1" parent="1">
          <mxGeometry x="610" y="395" width="80" height="80" as="geometry" />
        </mxCell>
        <mxCell id="BbysrrKKSGWngdhlLo0F-21" value="" style="html=1;points=[];perimeter=orthogonalPerimeter;outlineConnect=0;targetShapes=umlLifeline;portConstraint=eastwest;newEdgeStyle={&quot;edgeStyle&quot;:&quot;elbowEdgeStyle&quot;,&quot;elbow&quot;:&quot;vertical&quot;,&quot;curved&quot;:0,&quot;rounded&quot;:0};" vertex="1" parent="1">
          <mxGeometry x="645" y="490" width="10" height="80" as="geometry" />
        </mxCell>
        <mxCell id="BbysrrKKSGWngdhlLo0F-22" value="getTeacher()" style="text;html=1;strokeColor=none;fillColor=none;align=center;verticalAlign=middle;whiteSpace=wrap;rounded=0;" vertex="1" parent="1">
          <mxGeometry x="540" y="475" width="60" height="30" as="geometry" />
        </mxCell>
        <mxCell id="BbysrrKKSGWngdhlLo0F-23" value="" style="endArrow=classic;html=1;rounded=0;" edge="1" parent="1">
          <mxGeometry width="50" height="50" relative="1" as="geometry">
            <mxPoint x="520" y="510" as="sourcePoint" />
            <mxPoint x="640" y="510" as="targetPoint" />
          </mxGeometry>
        </mxCell>
        <mxCell id="BbysrrKKSGWngdhlLo0F-24" value="" style="endArrow=classic;html=1;rounded=0;dashed=1;" edge="1" parent="1">
          <mxGeometry width="50" height="50" relative="1" as="geometry">
            <mxPoint x="640" y="540" as="sourcePoint" />
            <mxPoint x="520" y="540" as="targetPoint" />
          </mxGeometry>
        </mxCell>
        <mxCell id="BbysrrKKSGWngdhlLo0F-25" value="returnTeacher()" style="text;html=1;strokeColor=none;fillColor=none;align=center;verticalAlign=middle;whiteSpace=wrap;rounded=0;" vertex="1" parent="1">
          <mxGeometry x="550" y="510" width="80" height="30" as="geometry" />
        </mxCell>
        <mxCell id="BbysrrKKSGWngdhlLo0F-26" value="" style="html=1;points=[];perimeter=orthogonalPerimeter;outlineConnect=0;targetShapes=umlLifeline;portConstraint=eastwest;newEdgeStyle={&quot;edgeStyle&quot;:&quot;elbowEdgeStyle&quot;,&quot;elbow&quot;:&quot;vertical&quot;,&quot;curved&quot;:0,&quot;rounded&quot;:0};" vertex="1" parent="1">
          <mxGeometry x="827" y="570" width="10" height="480" as="geometry" />
        </mxCell>
        <mxCell id="BbysrrKKSGWngdhlLo0F-27" value="" style="endArrow=classic;html=1;rounded=0;" edge="1" parent="1">
          <mxGeometry width="50" height="50" relative="1" as="geometry">
            <mxPoint x="530" y="619.5" as="sourcePoint" />
            <mxPoint x="820" y="620" as="targetPoint" />
          </mxGeometry>
        </mxCell>
        <mxCell id="BbysrrKKSGWngdhlLo0F-29" value="displayCommunicationForm()" style="text;html=1;align=center;verticalAlign=middle;resizable=0;points=[];autosize=1;strokeColor=none;fillColor=none;" vertex="1" parent="1">
          <mxGeometry x="590" y="588" width="180" height="30" as="geometry" />
        </mxCell>
        <mxCell id="BbysrrKKSGWngdhlLo0F-30" value="" style="endArrow=classic;html=1;rounded=0;" edge="1" parent="1">
          <mxGeometry width="50" height="50" relative="1" as="geometry">
            <mxPoint x="110" y="730" as="sourcePoint" />
            <mxPoint x="820" y="730" as="targetPoint" />
          </mxGeometry>
        </mxCell>
        <mxCell id="BbysrrKKSGWngdhlLo0F-31" value="fillFormDetails()" style="text;html=1;align=center;verticalAlign=middle;resizable=0;points=[];autosize=1;strokeColor=none;fillColor=none;" vertex="1" parent="1">
          <mxGeometry x="235" y="688" width="110" height="30" as="geometry" />
        </mxCell>
        <mxCell id="BbysrrKKSGWngdhlLo0F-35" value="" style="endArrow=classic;html=1;rounded=0;" edge="1" parent="1">
          <mxGeometry width="50" height="50" relative="1" as="geometry">
            <mxPoint x="850" y="830" as="sourcePoint" />
            <mxPoint x="850" y="880" as="targetPoint" />
            <Array as="points">
              <mxPoint x="1000" y="830" />
            </Array>
          </mxGeometry>
        </mxCell>
        <mxCell id="BbysrrKKSGWngdhlLo0F-36" value="" style="endArrow=classic;html=1;rounded=0;" edge="1" parent="1">
          <mxGeometry width="50" height="50" relative="1" as="geometry">
            <mxPoint x="110" y="790" as="sourcePoint" />
            <mxPoint x="820" y="790" as="targetPoint" />
          </mxGeometry>
        </mxCell>
        <mxCell id="BbysrrKKSGWngdhlLo0F-37" value="selectSendToTeacher()" style="text;html=1;strokeColor=none;fillColor=none;align=center;verticalAlign=middle;whiteSpace=wrap;rounded=0;" vertex="1" parent="1">
          <mxGeometry x="280" y="750" width="130" height="30" as="geometry" />
        </mxCell>
        <mxCell id="BbysrrKKSGWngdhlLo0F-40" value="waitForResponse()" style="text;html=1;strokeColor=none;fillColor=none;align=center;verticalAlign=middle;whiteSpace=wrap;rounded=0;" vertex="1" parent="1">
          <mxGeometry x="870" y="780" width="120" height="30" as="geometry" />
        </mxCell>
        <mxCell id="BbysrrKKSGWngdhlLo0F-41" value="" style="endArrow=classic;html=1;rounded=0;" edge="1" parent="1">
          <mxGeometry width="50" height="50" relative="1" as="geometry">
            <mxPoint x="850" y="940" as="sourcePoint" />
            <mxPoint x="1040" y="940" as="targetPoint" />
          </mxGeometry>
        </mxCell>
        <mxCell id="BbysrrKKSGWngdhlLo0F-42" value="" style="html=1;points=[];perimeter=orthogonalPerimeter;outlineConnect=0;targetShapes=umlLifeline;portConstraint=eastwest;newEdgeStyle={&quot;edgeStyle&quot;:&quot;elbowEdgeStyle&quot;,&quot;elbow&quot;:&quot;vertical&quot;,&quot;curved&quot;:0,&quot;rounded&quot;:0};" vertex="1" parent="1">
          <mxGeometry x="1040" y="920" width="10" height="80" as="geometry" />
        </mxCell>
        <mxCell id="BbysrrKKSGWngdhlLo0F-43" value="addToProgram()" style="text;html=1;strokeColor=none;fillColor=none;align=center;verticalAlign=middle;whiteSpace=wrap;rounded=0;" vertex="1" parent="1">
          <mxGeometry x="900" y="900" width="100" height="30" as="geometry" />
        </mxCell>
        <mxCell id="BbysrrKKSGWngdhlLo0F-45" value="" style="endArrow=classic;html=1;rounded=0;" edge="1" parent="1">
          <mxGeometry width="50" height="50" relative="1" as="geometry">
            <mxPoint x="110" y="570" as="sourcePoint" />
            <mxPoint x="500" y="570" as="targetPoint" />
          </mxGeometry>
        </mxCell>
        <mxCell id="BbysrrKKSGWngdhlLo0F-46" value="selectEmailOrTelephone" style="text;html=1;strokeColor=none;fillColor=none;align=center;verticalAlign=middle;whiteSpace=wrap;rounded=0;" vertex="1" parent="1">
          <mxGeometry x="210" y="530" width="160" height="30" as="geometry" />
        </mxCell>
        <mxCell id="BbysrrKKSGWngdhlLo0F-47" value="alternative" style="shape=umlFrame;whiteSpace=wrap;html=1;pointerEvents=0;" vertex="1" parent="1">
          <mxGeometry x="50" y="480" width="820" height="190" as="geometry" />
        </mxCell>
        <mxCell id="BbysrrKKSGWngdhlLo0F-48" value="" style="endArrow=classic;html=1;rounded=0;" edge="1" parent="1">
          <mxGeometry width="50" height="50" relative="1" as="geometry">
            <mxPoint x="840" y="990" as="sourcePoint" />
            <mxPoint x="840" y="1030" as="targetPoint" />
            <Array as="points">
              <mxPoint x="960" y="990" />
            </Array>
          </mxGeometry>
        </mxCell>
        <mxCell id="BbysrrKKSGWngdhlLo0F-50" value="ResponseNegative()" style="text;html=1;strokeColor=none;fillColor=none;align=center;verticalAlign=middle;whiteSpace=wrap;rounded=0;" vertex="1" parent="1">
          <mxGeometry x="850" y="960" width="110" height="20" as="geometry" />
        </mxCell>
        <mxCell id="BbysrrKKSGWngdhlLo0F-52" value="alternative" style="shape=umlFrame;whiteSpace=wrap;html=1;pointerEvents=0;" vertex="1" parent="1">
          <mxGeometry x="780" y="890" width="300" height="200" as="geometry" />
        </mxCell>
      </root>
    </mxGraphModel>
  </diagram>
</mxfile>
